<svg xmlns="http://www.w3.org/2000/svg" xmlns:xlink="http://www.w3.org/1999/xlink" width="344" height="135" viewBox="0 0 45.32 17.859"><g fill="#818081" stroke="#818081"><g stroke-width=".149"><path d="M2.575 5.455q.289 0 .489-.093.205-.098.335-.275.13-.177.186-.424.061-.247.061-.55 0-.228-.065-.438-.065-.214-.2-.373-.13-.158-.335-.252-.205-.098-.484-.098-.34 0-.564.112-.224.107-.359.284-.135.177-.191.401-.056.224-.056.452 0 .233.07.456.075.224.219.401.149.177.368.289.224.107.526.107zM1.489 7.36q-.21.228-.326.456-.112.228-.112.442 0 .284.121.466.121.186.312.293.191.107.429.149.238.042.475.042.13 0 .312-.019.186-.014.382-.051.2-.037.391-.102.196-.061.349-.154.154-.093.247-.224.098-.126.098-.293 0-.163-.102-.293-.098-.126-.265-.224-.163-.098-.391-.177-.224-.079-.769-.182-.363-.056-.568-.075-.2-.023-.354-.033-.154-.014-.228-.023zm3.302-4.215q-.186-.005-.345.019-.158.023-.312.07.116.177.196.405.084.224.084.526 0 .456-.158.792-.158.331-.424.55-.265.214-.61.321-.345.102-.717.102-.317 0-.657-.079-.075.009-.191.051-.116.042-.228.112-.107.07-.186.163-.079.088-.079.196 0 .121.163.191.163.07.429.121.265.047.941.14.713.116 1.048.214.34.093.606.252.265.158.429.387.163.233.163.568 0 .321-.121.554-.121.233-.326.396-.2.168-.466.27-.265.107-.559.168-.293.061-.596.079-.298.023-.568.023-.429 0-.787-.075-.354-.075-.61-.233-.256-.154-.401-.396-.144-.238-.144-.568 0-.177.061-.354.065-.172.172-.331.112-.158.252-.293.144-.135.303-.242-.126-.061-.247-.126-.121-.07-.219-.154-.093-.088-.154-.2-.061-.116-.061-.27 0-.168.098-.307.102-.14.247-.252.149-.112.312-.186.163-.075.289-.107-.391-.224-.592-.568-.2-.349-.2-.871 0-.424.168-.75.172-.331.447-.55.275-.219.629-.331.354-.116.722-.116.321 0 .643.088.321.088.601.265.363-.14.703-.196.345-.056.652-.056l-.084.596zm1.757-.611q.033.121.047.326.019.2.019.526.359-.429.838-.68.484-.252 1.006-.252.061 0 .126.009.07.009.102.019l-.158.769q-.14-.037-.354-.037-.619 0-1.029.279-.41.279-.526.55v3.521h-.736V3.228q-.009-.601-.028-.694z"/><use xlink:href="#B"/><path d="M16.879 3.084q-.345 0-.657.079-.312.079-.666.275v3.163q.191.182.531.298.34.116.792.116.689 0 1.034-.564.345-.564.345-1.449 0-.927-.368-1.421-.368-.498-1.011-.498zm-1.397-.55q.033.2.056.363.484-.238.824-.34.34-.102.685-.102.955 0 1.467.694.517.694.517 1.877 0 1.118-.568 1.872-.564.75-1.495.75-.522 0-.866-.116-.34-.121-.545-.284v2.427h-.736v-6.4q-.009-.317-.042-.741z"/><use xlink:href="#C"/><path d="M26.381 6.894q.373.191 1.029.191.89 0 1.29-.606.405-.61.405-1.425 0-.96-.373-1.463-.373-.508-1.025-.508-.391 0-.75.116-.354.116-.578.284zM25.645.266h.736v2.683q.224-.191.606-.34.387-.154.904-.154.964 0 1.477.671.517.671.517 1.845 0 1.234-.601 1.952-.601.717-2.022.717-.331 0-.796-.037-.466-.033-.82-.075z"/><use xlink:href="#D"/><use xlink:href="#B" x="24.044"/><use xlink:href="#E"/></g><g stroke-width=".149"><use xlink:href="#B" x="-8.95" y="8.026"/><use xlink:href="#D" x="-25.178" y="8.025"/><path d="M10.211 13.48q.289 0 .489-.093.205-.098.335-.275.13-.177.186-.424.061-.247.061-.55 0-.228-.065-.438-.065-.214-.2-.373-.13-.158-.335-.252-.205-.098-.484-.098-.34 0-.564.112-.224.107-.359.284-.135.177-.191.401-.056.224-.056.452 0 .233.07.456.075.224.219.401.149.177.368.289.224.107.526.107zm-1.085 1.905q-.21.228-.326.456-.112.228-.112.442 0 .284.121.466.121.186.312.293.191.107.429.149.238.042.475.042.13 0 .312-.019.186-.014.382-.051.2-.037.391-.102.196-.061.349-.154.154-.093.247-.224.098-.126.098-.293 0-.163-.102-.293-.098-.126-.265-.224-.163-.098-.391-.177-.224-.079-.769-.182-.363-.056-.568-.075-.2-.023-.354-.033-.154-.014-.228-.023zm3.302-4.215q-.186-.005-.345.019-.158.023-.312.07.116.177.196.405.084.224.084.526 0 .456-.158.792-.158.331-.424.55-.265.214-.61.321-.345.102-.717.102-.317 0-.657-.079-.075.009-.191.051-.116.042-.228.112-.107.07-.186.163-.079.088-.079.196 0 .121.163.191.163.07.429.121.265.047.941.14.713.116 1.048.214.34.093.606.252.265.158.429.387.163.233.163.568 0 .321-.121.554-.121.233-.326.396-.2.168-.466.27-.265.107-.559.168-.293.061-.596.079-.298.023-.568.023-.429 0-.787-.075-.354-.075-.61-.233-.256-.154-.401-.396-.144-.238-.144-.568 0-.177.061-.354.065-.172.172-.331.112-.158.252-.293.144-.135.303-.242-.126-.061-.247-.126-.121-.07-.219-.154-.093-.088-.154-.2-.061-.116-.061-.27 0-.168.098-.307.102-.14.247-.252.149-.112.312-.186.163-.075.289-.107-.391-.224-.592-.568-.2-.349-.2-.871 0-.424.168-.75.172-.331.447-.55.275-.219.629-.331.354-.116.722-.116.321 0 .643.088.321.088.601.265.363-.14.703-.196.345-.056.652-.056l-.084.596zm3.317 3.913q.387 0 .675-.182.289-.182.573-.657.289-.475.289-1.29 0-.713-.396-1.295-.391-.587-1.15-.587-.759 0-1.174.559-.41.559-.41 1.463 0 .773.293 1.202.298.429.596.61.303.177.703.177zm.033.592q-1.183 0-1.789-.731-.606-.731-.606-1.938 0-1.081.647-1.803.647-.722 1.723-.722 1.099 0 1.695.75.601.75.601 1.868 0 1.062-.629 1.821-.629.755-1.644.755zm4.191-5.115q.033.121.047.326.019.2.019.526.359-.429.838-.68.484-.252 1.006-.252.061 0 .126.009.07.009.102.019l-.158.769q-.14-.037-.354-.037-.619 0-1.029.279-.41.279-.526.55v3.521h-.736v-4.336q-.009-.601-.028-.694zm2.921 0h.736v5.03h-.736zm-.075-1.63q0-.168.121-.307.121-.14.321-.14.196 0 .312.14.121.14.121.307 0 .191-.13.321-.13.126-.303.126-.177 0-.312-.126-.13-.13-.13-.321zm1.701 1.63h.727V9.288h.736v1.272h1.225l-.079.638h-1.146v2.906q0 .433.14.694.144.261.447.261.163 0 .41-.047.247-.051.326-.075l.056.638q-.093.019-.396.056-.298.042-.47.042-.592 0-.922-.293-.326-.293-.326-1.085v-3.097h-.727z"/><use xlink:href="#C" x="8.084" y="8.025"/><path d="M34.418 10.56q.042.154.056.382.14-.075.312-.158.177-.084.377-.149.2-.065.419-.107.219-.047.442-.047.382 0 .671.121.293.121.508.405.932-.526 1.77-.526.354 0 .615.121.265.116.433.326.172.205.256.489.084.279.084.601v3.573h-.736v-3.503q0-.256-.07-.442-.065-.191-.186-.317-.121-.126-.284-.186-.163-.061-.349-.061-.675 0-1.318.345.061.275.061.606v3.559h-.736v-3.493q0-.522-.233-.769-.228-.247-.666-.247-.354 0-.699.112-.345.107-.643.261v4.136h-.736v-4.444q-.005-.321-.037-.587z"/><use xlink:href="#E" x="2.881" y="8.026"/></g></g><defs ><path id="B" d="M12.333 4.928q-.633.014-1.09.116-.456.098-.75.27-.293.172-.433.405-.14.233-.14.512 0 .396.224.582.224.186.619.186.214 0 .424-.047.214-.047.415-.126.2-.079.382-.186.186-.112.349-.238zm-2.93-1.77q.172-.158.401-.289.233-.13.489-.224.261-.093.536-.14.279-.051.554-.051.773 0 1.23.387.456.387.456 1.076v2.24q0 .275.019.452.019.177.065.279.051.102.13.144.084.037.21.037.158 0 .321-.033l.116.34q-.126.121-.359.196-.228.075-.494.075-.293 0-.475-.205-.177-.21-.228-.596-.396.368-.866.587-.466.214-1.001.214-.293 0-.55-.084-.252-.088-.438-.252-.186-.163-.293-.401-.102-.238-.102-.54 0-.405.154-.703.158-.298.415-.508.256-.21.587-.34.335-.13.689-.205.359-.075.713-.098.354-.028.652-.028v-.517q0-.494-.256-.717-.256-.224-.717-.224-.261 0-.489.061-.224.061-.419.154-.196.093-.359.205-.163.112-.293.214z"/><path id="C" d="M20.26.266h.736v2.655q.252-.149.661-.307.415-.158.936-.158.792 0 1.211.456.424.456.424 1.234v3.419h-.736l.005-3.377q0-.536-.265-.834-.265-.298-.829-.298-.354 0-.727.121-.373.121-.68.284v4.104h-.736z"/><path id="D" d="M31.067.266h.736v6.269q0 .284.112.387.112.102.391.102.037 0 .107-.005.075-.005.149-.014l.107.429q-.084.037-.186.075-.102.037-.214.065-.112.033-.224.047-.112.019-.21.019-.363 0-.568-.233-.2-.233-.2-.694z"/><path id="E" d="M38.999 6.349q.317.345.652.536.335.191.843.191.512 0 .843-.214.331-.219.331-.596 0-.261-.168-.447-.168-.191-.675-.373-.191-.065-.75-.256-.526-.14-.987-.475-.461-.335-.461-.95 0-.587.498-.946.498-.363 1.29-.363.279 0 .517.033.242.028.452.098.214.07.401.182.191.112.368.279l-.424.508q-.317-.275-.619-.401-.298-.126-.685-.126-.475 0-.787.177-.307.177-.307.517 0 .326.289.522.289.191.685.307.21.065.415.135.205.07.415.135.661.238.95.559.289.321.289.843 0 .652-.536 1.039-.536.387-1.323.387-.615 0-1.09-.154-.47-.158-.913-.615z"/></defs></svg>
